<svg width="122" height="56" viewBox="0 0 122 56" fill="none" xmlns="http://www.w3.org/2000/svg">
<g clip-path="url(#clip0_267_5379)">
<path d="M17.5215 45.0066C17.1993 45.5116 16.9138 46.0033 16.5861 46.465C15.3902 48.2021 13.8234 49.6378 12.0045 50.6631C11.0858 51.1603 10.0802 51.4671 9.04531 51.5657C8.54218 51.624 8.03615 51.6523 7.52979 51.6504C4.73569 51.6052 2.59654 50.3692 1.11233 47.9422C0.546177 47.0408 0.184968 46.0209 0.0553305 44.9576C-0.133993 43.3473 0.175156 41.7169 0.939229 40.2959C2.05883 38.163 3.75665 36.7724 6.0953 36.2636C7.57921 35.9618 9.11293 36.0388 10.5608 36.4879C11.9466 36.9073 13.2609 37.5429 14.4573 38.3721L14.7778 38.57C14.8514 38.2591 14.9251 37.9821 14.9785 37.7013C15.3983 35.4685 15.8219 33.2375 16.227 31.0028C16.5732 29.0997 16.8973 27.1928 17.2306 25.2897C17.2748 25.0297 17.3042 24.7697 17.3558 24.5116C17.3853 24.3608 17.3263 24.3231 17.1956 24.3231C16.726 24.3363 16.2546 24.3759 15.785 24.3514C14.0172 24.2609 12.2568 24.0876 10.5535 23.5468C9.98132 23.3972 9.44703 23.1241 8.98639 22.746C8.51313 22.3183 8.4008 21.7624 8.52786 21.1614C8.65492 20.5603 8.99743 20.1024 9.618 19.9988C9.95321 19.9725 10.2904 19.9941 10.6198 20.0628C11.5607 20.1759 12.4962 20.3266 13.4372 20.4152C14.4095 20.5056 15.3854 20.5527 16.3614 20.5885C16.7134 20.583 17.0646 20.5541 17.4129 20.5019C17.597 20.4849 17.6652 20.3813 17.6873 20.191C18.1476 16.2642 18.8069 12.3788 20.0811 8.63107C20.7165 6.77131 21.5064 4.98504 22.6592 3.39096C23.4952 2.23968 24.4675 1.23161 25.7639 0.641838C27.8337 -0.300289 29.8703 -0.266373 31.7762 1.08652C32.9253 1.90429 33.5974 3.09137 34.0265 4.43295C34.4157 5.67544 34.5645 6.98362 34.4648 8.28437C34.253 11.4311 33.1021 14.216 31.2477 16.7089C29.2811 19.3468 26.7656 21.297 23.8524 22.7215C23.3117 22.9703 22.7585 23.1898 22.1951 23.3791C22.1222 23.3983 22.0571 23.4408 22.0094 23.5004C21.9617 23.5601 21.9339 23.6338 21.93 23.7107C21.7618 24.8765 21.5899 26.0409 21.4144 27.2042C21.2388 28.3674 21.0583 29.523 20.873 30.6712C20.6686 31.9506 20.4697 33.2319 20.2395 34.5075C19.9504 36.1317 19.6355 37.7503 19.3188 39.3689C19.2212 39.8758 19.107 40.3807 18.9708 40.8763C18.9293 40.9773 18.9251 41.0904 18.959 41.1943C18.9928 41.2983 19.0625 41.3862 19.1549 41.4416C20.0756 42.1538 20.9687 42.9075 21.9171 43.584C24.0582 45.1455 26.3872 46.4178 28.8465 47.3694C30.1443 47.8754 31.4942 48.2288 32.87 48.4227C33.5175 48.5133 34.1703 48.558 34.8238 48.5565C37 48.5642 39.1261 47.8888 40.9154 46.6214C41.6133 46.1258 42.3738 45.7791 43.2559 45.8074C44.1048 45.8338 44.5891 46.465 44.4012 47.3148C44.2549 47.8707 43.9618 48.3746 43.5542 48.7713C42.2394 50.1977 40.6078 51.1059 38.8069 51.7013C37.9604 51.9787 37.0831 52.1459 36.1957 52.1988C35.588 52.2364 34.9785 52.2892 34.369 52.2817C30.7855 52.2364 27.4341 51.3395 24.3368 49.4553C22.0847 48.0854 19.8749 46.6496 17.7222 45.1215C17.6541 45.0838 17.5915 45.0499 17.5215 45.0066ZM22.3793 19.1772C22.4971 19.1509 22.5634 19.1377 22.6352 19.1169C23.9908 18.7129 25.2231 17.9612 26.215 16.9331C27.8355 15.2685 29.0817 13.2622 29.8666 11.0542C30.4191 9.55624 30.7266 8.01303 30.4872 6.40011C30.4188 5.72953 30.1588 5.09445 29.7396 4.57427C29.5726 4.36197 29.3535 4.19894 29.1046 4.10192C28.8558 4.0049 28.5862 3.97738 28.3235 4.02219C27.7177 4.1164 27.2518 4.46122 26.8319 4.88141C25.9849 5.73497 25.4251 6.7845 24.9444 7.88114C24.1332 9.81638 23.5377 11.839 23.1693 13.9107C22.952 15.0413 22.777 16.1832 22.6021 17.3231C22.5119 17.9186 22.4566 18.5234 22.3793 19.1772ZM7.97543 39.7156C7.77287 39.7457 7.38248 39.7759 7.00498 39.8626C4.81733 40.36 3.45834 42.3912 3.76954 44.4206C3.85281 45.1836 4.20661 45.8888 4.76393 46.4028C5.68466 47.2168 6.77296 47.507 7.97359 47.4467C8.96075 47.3946 9.91552 47.069 10.7358 46.5046C12.2089 45.5172 13.1297 44.0889 13.7778 42.4515C13.7852 42.4097 13.7823 42.3666 13.7694 42.3262C13.7566 42.2858 13.7342 42.2492 13.7042 42.2198C13.1205 41.7864 12.5441 41.3398 11.9327 40.9498C10.7514 40.1706 9.38069 39.745 7.97543 39.7212V39.7156Z" fill="#0068E2"/>
<path d="M101.028 39.4657C101.554 39.8865 102.171 40.1738 102.827 40.3042C104.156 40.5736 105.405 40.2703 106.626 39.7389C108.034 39.1265 109.268 38.2315 110.452 37.2574C110.831 36.9357 111.247 36.6635 111.692 36.4471C111.831 36.3755 111.985 36.3381 112.141 36.3378C112.297 36.3375 112.451 36.3743 112.591 36.4454C112.731 36.5165 112.853 36.6199 112.947 36.7474C113.041 36.8749 113.105 37.023 113.133 37.1801C113.182 37.4515 113.177 37.73 113.121 37.9998C112.993 38.6016 112.686 39.1477 112.24 39.5618C110.215 41.5421 107.878 42.9629 105.103 43.5037C102.551 44.003 100.247 43.3812 98.225 41.7061C98.1575 41.6313 98.0656 41.5843 97.9666 41.5739C97.8676 41.5635 97.7683 41.5904 97.6873 41.6496C95.9077 42.6481 93.9788 43.3383 91.9788 43.6921C91.1999 43.8535 90.4046 43.9168 89.6107 43.8805C87.9405 43.7561 86.4452 43.2172 85.3385 41.8493C84.7792 41.1344 84.4339 40.2694 84.3441 39.3583C84.2244 38.3954 84.3644 37.4533 84.5412 36.5168C84.9819 34.1904 85.4349 31.8665 85.9001 29.5451C86.1672 28.2261 86.4526 26.9072 86.7896 25.5882C87.0768 24.4576 87.7821 23.7039 88.9128 23.4288C89.3145 23.3288 89.7349 23.3385 90.1318 23.4571C90.7966 23.6455 91.1299 24.1486 91.2477 24.8081C91.3557 25.5539 91.3219 26.3139 91.1483 27.0466C90.6216 29.6996 90.0956 32.3533 89.5702 35.0076C89.4339 35.6991 89.2774 36.3868 89.1577 37.0802C89.0791 37.5173 89.0891 37.9663 89.1872 38.3992C89.3713 39.2057 90.0453 39.7182 90.9015 39.7634C92.1906 39.8426 93.3949 39.4487 94.5845 39.0097C94.9362 38.8816 95.2787 38.7271 95.6451 38.5782C95.6194 38.4953 95.6065 38.4312 95.5825 38.3728C95.0639 37.1872 94.8291 35.892 94.8975 34.5949C95.0246 31.8024 95.9527 29.3322 97.8438 27.2972C99.025 26.0009 100.621 25.1806 102.343 24.9852C103.659 24.8251 104.921 24.9852 106.084 25.6975C106.643 26.0159 107.118 26.4692 107.467 27.0179C107.815 27.5666 108.028 28.1942 108.086 28.8461C108.215 30.0463 107.902 31.1543 107.421 32.2245C106.823 33.4779 106.045 34.6331 105.114 35.652C103.923 36.9782 102.616 38.1904 101.21 39.2735C101.164 39.3112 101.116 39.347 101.072 39.3866C101.054 39.4111 101.039 39.4377 101.028 39.4657ZM98.8364 36.7901C98.9524 36.7203 99.0205 36.6883 99.0739 36.645C99.3501 36.4339 99.6264 36.2248 99.9007 36.0062C101.125 35.0226 102.295 33.9806 103.26 32.7201C103.755 32.07 104.191 31.3841 104.379 30.5664C104.666 29.3133 103.952 28.5578 102.805 28.586C102.053 28.6017 101.33 28.8887 100.764 29.3963C98.9524 30.9979 98.0887 32.9971 98.4626 35.4673C98.559 35.9161 98.6839 36.3579 98.8364 36.7901Z" fill="#0068E2"/>
<path d="M71.1262 26.2422C71.2219 26.1913 71.3011 26.1555 71.3748 26.1103C72.389 25.4758 73.5152 25.0513 74.6894 24.861C75.5346 24.7185 76.4001 24.7671 77.225 25.0035C78.0499 25.2398 78.8142 25.6581 79.4643 26.229C80.7657 27.3075 81.6207 28.8495 81.8581 30.5458C82.0042 31.3831 82.0598 32.2342 82.0239 33.0839C81.871 35.9103 81.0847 38.5011 79.3261 40.7358C78.1605 42.2188 76.6284 43.0836 74.833 43.4699C74.1874 43.6131 73.5288 43.6864 72.8682 43.6885C71.3854 43.6739 69.9262 43.3075 68.6052 42.6182C68.3271 42.4769 68.3179 42.4769 68.2572 42.7916C67.8373 44.9622 67.4205 47.1335 67.0068 49.3054C66.8227 50.2476 66.749 51.1897 66.3973 52.0904C66.144 52.819 65.6875 53.4558 65.0843 53.9218C64.1636 54.6021 62.9704 54.5154 62.2577 53.707C62.0472 53.4835 61.8904 53.2128 61.8 52.9165C61.7095 52.6202 61.6878 52.3063 61.7366 51.9999C62.1049 49.6615 62.5026 47.3251 62.9225 44.9943C63.3423 42.6634 63.8101 40.2949 64.2631 37.9471C64.6755 35.8066 65.0991 33.668 65.5116 31.5256C65.8209 29.9146 66.1064 28.296 66.4323 26.6869C66.6349 25.6712 67.075 24.7781 67.946 24.1789C68.6218 23.7135 69.3565 23.7286 70.071 24.047C70.6824 24.3184 70.9033 24.9062 71.0286 25.5299C71.0525 25.756 71.0801 25.9859 71.1262 26.2422ZM69.1853 35.6917C69.2184 35.9988 69.235 36.3606 69.2976 36.7148C69.5204 37.9754 70.1244 38.9571 71.36 39.3867C71.973 39.608 72.6266 39.6859 73.2728 39.6149C73.919 39.5438 74.5415 39.3255 75.0945 38.976C76.238 38.292 76.993 37.2594 77.4884 36.0214C78.0537 34.5762 78.2342 33.0877 77.7554 31.5803C77.1845 29.7902 75.6985 28.7237 73.7521 28.9423C72.2789 29.1138 71.1446 29.9297 70.3601 31.2034C69.5315 32.5563 69.2847 34.0788 69.1797 35.6917H69.1853Z" fill="#0068E2"/>
<path d="M34.275 24.7969C35.8015 24.8327 37.26 25.1115 38.5637 25.9425C40.5801 27.2294 41.847 29.0591 42.2153 31.486C42.3449 32.5154 42.3306 33.5584 42.173 34.5837C42.0387 35.7947 41.7232 36.9774 41.2375 38.0903C40.0461 40.7282 38.1494 42.5842 35.424 43.4981C34.7508 43.7131 34.0519 43.8323 33.3469 43.8523C31.9048 43.9494 30.4602 43.7064 29.1244 43.142C26.5998 42.0246 25.0346 40.0442 24.5834 37.2857C24.1046 34.3482 24.6092 31.5331 26.2573 29.0327C27.701 26.8432 29.7432 25.5091 32.2936 25.0324C32.9436 24.9099 33.6139 24.8722 34.275 24.7969ZM37.5601 33.2647C37.5823 32.2412 37.4322 31.2213 37.1163 30.2499C36.5639 28.5691 35.1423 27.9643 33.868 27.953C33.1038 27.963 32.3636 28.2276 31.7596 28.7067C30.9419 29.3115 30.454 30.1632 30.0654 31.0827C29.6237 32.1567 29.3353 33.29 29.2091 34.448C29.0444 35.5776 29.0938 36.7292 29.3546 37.8397C29.5222 38.4803 29.7229 39.1266 30.2017 39.5977C30.6654 40.0818 31.2504 40.4258 31.8926 40.592C32.5349 40.7582 33.2094 40.7401 33.8422 40.5398C35.0245 40.2082 35.8236 39.3829 36.4074 38.3089C37.2434 36.7657 37.5786 35.1019 37.5601 33.2647Z" fill="#0068E2"/>
<path d="M61.9778 32.4977C61.9189 34.9981 61.5267 37.133 60.4052 39.0625C59.0959 41.3142 57.2379 42.88 54.7409 43.5847C53.6221 43.8807 52.4585 43.9562 51.3121 43.807C50.0489 43.6676 48.8372 43.3529 47.7434 42.6765C45.6975 41.4178 44.4122 39.575 44.0605 37.1632C43.6369 34.2294 44.1489 31.4426 45.8154 28.9742C47.272 26.8167 49.3141 25.5241 51.8424 25.0304C52.7326 24.865 53.6388 24.8081 54.542 24.8609C56.2515 24.9136 57.8946 25.5504 59.2092 26.6698C60.5238 27.7893 61.4343 29.3269 61.7955 31.0374C61.8803 31.5207 61.9412 32.0081 61.9778 32.4977ZM48.4652 35.9384C48.5278 36.4038 48.5776 37.0689 48.7138 37.7058C48.8667 38.4199 49.095 39.1247 49.6493 39.6372C50.05 40.006 50.5186 40.2893 51.0277 40.4705C51.5368 40.6517 52.0761 40.7271 52.614 40.6924C53.1306 40.6696 53.637 40.5376 54.1013 40.3048C54.5655 40.072 54.9777 39.7433 55.3117 39.3395C56.0281 38.5217 56.4571 37.5438 56.7739 36.5131C57.1422 35.309 57.2103 34.0636 57.1771 32.8162C57.1532 31.9738 57.0138 31.1391 56.7628 30.3365C56.1699 28.3976 54.3395 27.7664 52.9547 27.9944C52.3395 28.0829 51.7519 28.313 51.2361 28.6674C50.7203 29.0219 50.2899 29.4914 49.9771 30.0407C48.9495 31.793 48.5904 33.7338 48.4652 35.9384Z" fill="#0068E2"/>
<path d="M93.0652 18.2317C93.1371 19.8503 91.7099 20.9865 90.4136 20.9846C90.0617 20.9906 89.7123 20.9251 89.3854 20.7918C89.0585 20.6586 88.7607 20.4603 88.5093 20.2085C88.2578 19.9566 88.0577 19.6562 87.9206 19.3246C87.7834 18.9931 87.712 18.6369 87.7103 18.2769C87.7064 17.9114 87.7735 17.5487 87.9077 17.21C88.0418 16.8712 88.2404 16.5631 88.4919 16.3035C88.7434 16.0439 89.0427 15.8379 89.3726 15.6977C89.7025 15.5574 90.0563 15.4856 90.4136 15.4863C92.0064 15.5165 93.1499 16.9655 93.0652 18.2317Z" fill="#0068E2"/>
<path d="M103.445 55.8586C103.062 55.8586 102.679 55.8586 102.296 55.8586C102.112 55.8586 102.085 55.7813 102.112 55.623C102.451 53.6672 102.787 51.7101 103.12 49.7517C103.149 49.5821 103.215 49.5143 103.394 49.5162C104.086 49.5275 104.779 49.503 105.469 49.5256C106.672 49.5671 107.637 50.121 107.972 51.2874C108.185 52.0329 108.143 52.8304 107.854 53.5485C107.325 54.8995 106.331 55.6588 104.92 55.8096C104.43 55.835 103.938 55.835 103.447 55.8096L103.445 55.8586ZM103.195 54.9447C103.719 54.9702 104.244 54.9651 104.768 54.9296C105.154 54.8828 105.526 54.7544 105.861 54.5528C106.756 53.9969 107.119 53.1302 107.099 52.0712C107.082 51.2007 106.594 50.5846 105.749 50.4828C105.234 50.4206 104.709 50.4489 104.188 50.4282C104.014 50.4282 103.948 50.479 103.919 50.6599C103.735 51.7396 103.55 52.8155 103.366 53.8933C103.304 54.2362 103.254 54.5679 103.195 54.9447Z" fill="#0068E2"/>
<path d="M98.8216 54.1003C98.9444 53.3918 99.0672 52.6839 99.1899 51.9767C99.3225 51.2098 99.4514 50.441 99.5932 49.6741C99.6045 49.64 99.6238 49.6092 99.6495 49.5846C99.6752 49.5599 99.7065 49.5421 99.7405 49.5328C99.9965 49.5178 100.252 49.5328 100.547 49.5328C100.488 49.8984 100.437 50.2432 100.378 50.5861C100.103 52.1896 99.8252 53.7894 99.549 55.3929C99.4551 55.9167 99.5785 55.8413 99.0168 55.8733C98.7075 55.8922 98.5675 55.7678 98.4349 55.4965C97.7481 54.1172 97.0409 52.7474 96.3412 51.3737C96.3157 51.3292 96.2874 51.2864 96.2565 51.2456C96.2331 51.3073 96.2128 51.3702 96.1957 51.434C95.9563 52.8234 95.7188 54.2121 95.4831 55.6001C95.4499 55.7885 95.3763 55.8884 95.1682 55.8639C95.007 55.8498 94.845 55.8498 94.6839 55.8639C94.5292 55.8639 94.4887 55.8036 94.5145 55.6604C94.6839 54.702 94.8514 53.7422 95.0172 52.7813C95.1884 51.792 95.3597 50.8028 95.5199 49.8117C95.553 49.6063 95.6249 49.546 95.8366 49.5196C96.2988 49.4593 96.5198 49.6515 96.7168 50.068C97.3374 51.3737 98.0059 52.655 98.6522 53.9439C98.6853 54.006 98.7259 54.0645 98.7609 54.1229L98.8216 54.1003Z" fill="#0068E2"/>
<path d="M113.837 55.8565C113.526 55.8565 113.248 55.8678 112.969 55.8565C112.905 55.8565 112.822 55.7491 112.785 55.668C112.54 54.9847 112.301 54.2982 112.069 53.6086C112.01 53.4333 111.925 53.3429 111.738 53.3749C111.671 53.3796 111.605 53.3796 111.539 53.3749C110.986 53.3749 111.13 53.3316 111.038 53.8026C110.916 54.4263 110.826 55.0575 110.712 55.6869C110.701 55.751 110.629 55.8508 110.579 55.8527C110.31 55.8697 110.04 55.8527 109.741 55.8527L109.973 54.4753C110.234 52.9541 110.495 51.4329 110.756 49.9117C110.762 49.8289 110.778 49.7473 110.804 49.6686C110.83 49.6121 110.892 49.5273 110.938 49.5292C111.649 49.5386 112.377 49.4783 113.071 49.6008C114.286 49.8137 114.677 51.0498 114.166 52.1313C113.96 52.5713 113.601 52.917 113.159 53.1017C112.934 53.1997 112.934 53.3052 113.008 53.5068C113.273 54.2247 113.522 54.9464 113.774 55.668C113.802 55.7208 113.813 55.7698 113.837 55.8565ZM111.279 52.495C111.647 52.495 111.949 52.5138 112.257 52.495C112.436 52.4812 112.611 52.4292 112.769 52.3422C112.928 52.2552 113.067 52.1353 113.178 51.99C113.655 51.3814 113.41 50.5806 112.69 50.4581C112.368 50.4226 112.044 50.4182 111.721 50.4449C111.68 50.4449 111.618 50.5372 111.605 50.5957C111.539 50.9254 111.485 51.257 111.421 51.5886C111.382 51.8845 111.334 52.1765 111.279 52.495Z" fill="#0068E2"/>
<path d="M85.7712 55.8572C85.4858 55.8572 85.228 55.8572 84.972 55.8572C84.8174 55.8572 84.7676 55.7875 84.74 55.6518C84.6608 55.2561 84.5651 54.8623 84.4914 54.4648C84.462 54.3121 84.3938 54.2763 84.252 54.2763C83.4952 54.2763 82.7365 54.2763 81.9778 54.2763C81.9199 54.2723 81.8622 54.2871 81.813 54.3186C81.7637 54.35 81.7254 54.3966 81.7035 54.4516C81.4862 54.8605 81.2578 55.2656 81.0424 55.6763C81.0181 55.7385 80.9744 55.7906 80.9181 55.8247C80.8618 55.8588 80.7961 55.8729 80.7312 55.8648C80.4678 55.8497 80.2027 55.8648 79.9044 55.8648C79.9393 55.7837 79.9596 55.7253 79.9891 55.6763C81.0939 53.6979 82.1988 51.7181 83.3037 49.7372C83.3318 49.669 83.3812 49.6122 83.4442 49.5758C83.5071 49.5393 83.5801 49.5252 83.6517 49.5356C83.8503 49.5506 84.0497 49.5506 84.2483 49.5356C84.4012 49.5261 84.4564 49.5996 84.4859 49.7353L85.762 55.6669C85.7692 55.7301 85.7723 55.7936 85.7712 55.8572ZM82.2725 53.3907H84.2981L83.7567 50.8282L83.7033 50.8131L82.2725 53.3907Z" fill="#0068E2"/>
<path d="M89.1153 49.5253C88.9882 50.2582 88.8612 50.9497 88.747 51.645C88.6273 52.3987 88.48 53.1524 88.4248 53.9061C88.3714 54.6184 88.8078 55.0367 89.5094 55.0763C90.5701 55.1309 91.2643 54.5317 91.454 53.4106C91.6584 52.199 91.872 50.9893 92.0764 49.7777C92.1095 49.5799 92.1869 49.4932 92.3931 49.5177C92.5542 49.5319 92.7163 49.5319 92.8774 49.5177C93.0358 49.5083 93.0615 49.5874 93.0468 49.725C92.9124 50.5013 92.7798 51.2757 92.6417 52.0502C92.5331 52.6625 92.4483 53.2806 92.2937 53.8816C92.0138 54.9745 91.3508 55.7018 90.2331 55.9223C89.62 56.0713 88.9755 55.9995 88.4082 55.7188C87.8134 55.4041 87.5372 54.8709 87.4764 54.2114C87.4248 53.6273 87.5574 53.062 87.6606 52.493C87.8189 51.564 87.9791 50.6332 88.1467 49.7043C88.1577 49.6383 88.2369 49.5384 88.2903 49.5347C88.5481 49.5158 88.8133 49.5253 89.1153 49.5253Z" fill="#0068E2"/>
<path d="M116.269 49.5276C116.603 49.5276 116.91 49.5182 117.216 49.5276C117.275 49.5276 117.348 49.635 117.382 49.7161C117.75 50.5715 118.118 51.4326 118.498 52.2918C118.522 52.3354 118.548 52.3776 118.577 52.4181C118.792 52.1373 118.995 51.8735 119.201 51.6116C119.707 50.9653 120.212 50.319 120.728 49.6802C120.803 49.5959 120.907 49.5435 121.018 49.5333C121.324 49.5144 121.634 49.5333 122 49.5333C121.915 49.6482 121.858 49.7217 121.797 49.8065C120.895 50.9653 119.987 52.1222 119.09 53.2848C118.999 53.4089 118.936 53.5525 118.906 53.705C118.784 54.3595 118.669 55.0158 118.562 55.6741C118.536 55.8342 118.472 55.8719 118.332 55.8625C118.098 55.8531 117.862 55.8625 117.595 55.8625C117.656 55.4856 117.711 55.122 117.779 54.764C117.847 54.406 117.916 54.0103 117.964 53.6334C117.973 53.5223 117.954 53.4107 117.908 53.3093C117.396 52.1185 116.881 50.9295 116.363 49.7424C116.326 49.6784 116.304 49.6162 116.269 49.5276Z" fill="#0068E2"/>
<path d="M76.8881 49.5255L75.9673 54.9409H78.6485C78.6006 55.2329 78.5675 55.4854 78.5141 55.7323C78.5014 55.763 78.4814 55.7901 78.4561 55.8112C78.4307 55.8322 78.4006 55.8465 78.3686 55.8529C77.2158 55.8529 76.0612 55.8529 74.8698 55.8529C74.914 55.5721 74.9509 55.3102 74.9969 55.0483C75.2547 53.5283 75.5143 52.0077 75.7758 50.4865C75.82 50.2284 75.8679 49.9702 75.9084 49.7121C75.9287 49.5821 75.9821 49.5123 76.1257 49.5237C76.3688 49.5331 76.6155 49.5255 76.8881 49.5255Z" fill="#0068E2"/>
</g>
<defs>
<clipPath id="clip0_267_5379">
<rect width="122" height="56" fill="white"/>
</clipPath>
</defs>
</svg>
